<svg width="174" height="348" viewBox="0 0 174 348" fill="none" xmlns="http://www.w3.org/2000/svg">
<path opacity="0.1" d="M66.5869 13.245C45.4763 4.50064 22.85 0 0 0V115.537C7.67749 115.537 15.2798 117.049 22.3729 119.987C29.4659 122.925 35.9109 127.232 41.3397 132.66C46.7685 138.089 51.0748 144.534 54.0129 151.627C56.9509 158.72 58.4631 166.323 58.4631 174C58.4631 181.677 56.951 189.28 54.0129 196.373C51.0749 203.466 46.7685 209.911 41.3397 215.34C35.9109 220.768 29.466 225.075 22.3729 228.013C15.2798 230.951 7.67749 232.463 0 232.463V348C22.85 348 45.4763 343.499 66.5869 334.755C87.6976 326.011 106.879 313.194 123.037 297.037C139.194 280.879 152.011 261.698 160.755 240.587C169.499 219.476 174 196.85 174 174C174 151.15 169.499 128.524 160.755 107.413C152.011 86.3025 139.194 67.1208 123.037 50.9634C106.879 34.806 87.6976 21.9893 66.5869 13.245Z" fill="#1E5AFA"/>
</svg>
