<svg width="174" height="174" viewBox="0 0 174 174" fill="none" xmlns="http://www.w3.org/2000/svg">
<path opacity="0.1" d="M-7.60578e-06 0C-6.87946e-06 22.85 4.50064 45.4763 13.245 66.5869C21.9893 87.6976 34.806 106.879 50.9634 123.037C67.1208 139.194 86.3024 152.011 107.413 160.755C128.524 169.499 151.15 174 174 174L174 58.4631C166.323 58.4631 158.72 56.9509 151.627 54.0129C144.534 51.0748 138.089 46.7685 132.66 41.3397C127.232 35.9109 122.925 29.466 119.987 22.3729C117.049 15.2798 115.537 7.67749 115.537 -5.05028e-06L-7.60578e-06 0Z" fill="white"/>
</svg>
